<svg width="15" height="15" viewBox="0 0 15 15" fill="none" xmlns="http://www.w3.org/2000/svg">
<g id="cloud_queue_24px">
<path id="icon/file/cloud_queue_24px" fill-rule="evenodd" clip-rule="evenodd" d="M7.5 2.5C9.775 2.5 11.6687 4.11875 12.0938 6.275C13.7188 6.3875 15 7.725 15 9.375C15 11.1 13.6 12.5 11.875 12.5H3.75C1.68125 12.5 0 10.8188 0 8.75C0 6.81875 1.4625 5.225 3.34375 5.025C4.125 3.525 5.69375 2.5 7.5 2.5ZM3.75 11.25H11.875C12.9125 11.25 13.75 10.4125 13.75 9.375C13.75 8.3375 12.9125 7.5 11.875 7.5H10.9375V7.1875C10.9375 5.2875 9.4 3.75 7.5 3.75C5.925 3.75 4.60625 4.80625 4.19375 6.25H3.75C2.36875 6.25 1.25 7.36875 1.25 8.75C1.25 10.1312 2.36875 11.25 3.75 11.25Z" fill="#263144"/>
</g>
</svg>
