<svg width="13" height="18" viewBox="0 0 13 18" fill="none" xmlns="http://www.w3.org/2000/svg">
<path fill-rule="evenodd" clip-rule="evenodd" d="M6.125 0C2.73875 0 0 2.73875 0 6.125C0 10.7188 6.125 17.5 6.125 17.5C6.125 17.5 12.25 10.7188 12.25 6.125C12.25 2.73875 9.51125 0 6.125 0ZM1.75 6.125C1.75 3.71 3.71 1.75 6.125 1.75C8.54 1.75 10.5 3.71 10.5 6.125C10.5 8.645 7.98 12.4162 6.125 14.77C4.305 12.4337 1.75 8.61875 1.75 6.125ZM3.9375 6.125C3.9375 4.91688 4.91689 3.9375 6.125 3.9375C6.90655 3.9375 7.62869 4.35444 8.01946 5.03125C8.41015 5.70806 8.41015 6.54194 8.01946 7.21875C7.62869 7.89556 6.90655 8.3125 6.125 8.3125C4.91689 8.3125 3.9375 7.33311 3.9375 6.125Z" fill="white"/>
</svg>
