<svg width="15" height="15" viewBox="0 0 15 15" fill="none" xmlns="http://www.w3.org/2000/svg">
<path d="M2.22656 8.49609C1.98387 8.49609 1.78711 8.69285 1.78711 8.93555V11.5369C1.78711 11.7796 1.98387 11.9763 2.22656 11.9763C2.46926 11.9763 2.66602 11.7796 2.66602 11.5369V8.93555C2.66602 8.69285 2.46929 8.49609 2.22656 8.49609Z" fill="#263144"/>
<path d="M3.9844 9.14062C3.7417 9.14062 3.54494 9.33738 3.54494 9.58008V13.0371C3.54494 13.2798 3.7417 13.4766 3.9844 13.4766C4.2271 13.4766 4.42386 13.2798 4.42386 13.0371V9.58008C4.42386 9.33738 4.2271 9.14062 3.9844 9.14062Z" fill="#263144"/>
<path d="M5.74222 10.4883C5.49952 10.4883 5.30276 10.685 5.30276 10.9277V14.1797C5.30276 14.4224 5.49952 14.6191 5.74222 14.6191C5.98491 14.6191 6.18167 14.4224 6.18167 14.1797V10.9277C6.18167 10.685 5.98491 10.4883 5.74222 10.4883Z" fill="#263144"/>
<path d="M7.5 11.0742C7.2573 11.0742 7.06055 11.271 7.06055 11.5137V14.5605C7.06055 14.8032 7.2573 15 7.5 15C7.7427 15 7.93945 14.8032 7.93945 14.5605V11.5137C7.93945 11.271 7.74272 11.0742 7.5 11.0742Z" fill="#263144"/>
<path d="M9.25784 10.4883C9.01515 10.4883 8.81839 10.685 8.81839 10.9277V14.1797C8.81839 14.4224 9.01515 14.6191 9.25784 14.6191C9.50054 14.6191 9.6973 14.4224 9.6973 14.1797V10.9277C9.6973 10.685 9.50057 10.4883 9.25784 10.4883Z" fill="#263144"/>
<path d="M11.0156 9.14062C10.7729 9.14062 10.5762 9.33738 10.5762 9.58008V13.0371C10.5762 13.2798 10.7729 13.4766 11.0156 13.4766C11.2583 13.4766 11.4551 13.2798 11.4551 13.0371V9.58008C11.4551 9.33738 11.2583 9.14062 11.0156 9.14062Z" fill="#263144"/>
<path d="M12.7734 8.49609C12.5307 8.49609 12.334 8.69285 12.334 8.93555V11.5369C12.334 11.7796 12.5307 11.9763 12.7734 11.9763C13.0161 11.9763 13.2129 11.7796 13.2129 11.5369V8.93555C13.2129 8.69285 13.0162 8.49609 12.7734 8.49609Z" fill="#263144"/>
<path d="M14.2768 3.06979C13.9221 2.75675 13.4764 2.57265 13.0115 2.53963C12.9052 2.16595 12.698 1.82634 12.4076 1.5573C12.0112 1.19007 11.4951 0.987832 10.9545 0.987832C10.5281 0.987832 10.1145 1.11727 9.76626 1.34959C9.60606 1.05483 9.38868 0.791104 9.12568 0.577178C8.66813 0.20499 8.0908 0 7.5 0C6.9092 0 6.33187 0.20499 5.87432 0.577148C5.61132 0.791074 5.39394 1.0548 5.23374 1.34956C4.88555 1.11727 4.4719 0.987832 4.04552 0.987832C3.50487 0.987832 2.98884 1.19007 2.59245 1.5573C2.30212 1.82628 2.09493 2.16583 1.98858 2.53939C0.879082 2.61668 0 3.54404 0 4.67285C0 5.28568 0.26335 5.86975 0.72252 6.27533C1.07587 6.5874 1.51972 6.77153 1.98287 6.80566C2.23277 7.71492 3.06996 8.37894 4.04555 8.37894C4.4756 8.37894 4.89234 8.24745 5.24218 8.01164C5.40313 8.303 5.6202 8.56354 5.88182 8.77468C6.33806 9.14294 6.91274 9.34573 7.50003 9.34573C8.08731 9.34573 8.662 9.14294 9.11824 8.77468C9.37983 8.56354 9.59689 8.303 9.75785 8.01164C10.1077 8.24745 10.5244 8.37894 10.9545 8.37894C11.9302 8.37894 12.7673 7.71501 13.0172 6.80566C13.4803 6.77153 13.9242 6.5874 14.2775 6.27533C14.7367 5.86978 15 5.28568 15 4.67285C15 4.05967 14.7364 3.47537 14.2768 3.06979ZM13.6957 5.61659C13.4247 5.85595 13.0629 5.96754 12.7038 5.92286C12.584 5.90801 12.4633 5.94299 12.3701 6.01978C12.2769 6.09653 12.2194 6.20827 12.2111 6.32871C12.1658 6.98552 11.6138 7.50003 10.9545 7.50003C10.5495 7.50003 10.1793 7.31256 9.93888 6.98566C9.83704 6.84724 9.66396 6.78082 9.49553 6.8158C9.32725 6.85075 9.19477 6.9806 9.15647 7.14817C8.97902 7.92457 8.29784 8.46686 7.5 8.46686C6.70213 8.46686 6.02095 7.9246 5.8435 7.14817C5.8052 6.98063 5.67272 6.85075 5.50444 6.8158C5.47465 6.80962 5.44471 6.8066 5.41503 6.8066C5.27707 6.8066 5.14488 6.87173 5.06106 6.98566C4.8206 7.31256 4.45043 7.50003 4.04546 7.50003C3.38613 7.50003 2.83418 6.98552 2.78883 6.32871C2.78051 6.20827 2.723 6.09653 2.62983 6.01978C2.53664 5.94302 2.416 5.90801 2.29614 5.92286C1.9367 5.96751 1.57526 5.85595 1.30427 5.61659C1.03397 5.37779 0.878906 5.03382 0.878906 4.67285C0.878906 3.97822 1.44404 3.41309 2.13867 3.41309C2.19158 3.41309 2.24499 3.41643 2.29743 3.42299C2.41635 3.43787 2.53623 3.40354 2.62925 3.32795C2.72227 3.25233 2.78036 3.14203 2.79006 3.02256C2.84276 2.37442 3.39425 1.86674 4.04555 1.86674C4.44876 1.86674 4.81799 2.05292 5.05852 2.37753C5.16105 2.5159 5.33496 2.58167 5.50339 2.54563C5.67182 2.50966 5.80368 2.37864 5.84074 2.21045C6.01075 1.43892 6.70857 0.878906 7.5 0.878906C8.29143 0.878906 8.98925 1.43889 9.15926 2.21045C9.19632 2.37864 9.32821 2.50966 9.49661 2.54563C9.6653 2.5817 9.839 2.51587 9.94151 2.37753C10.1821 2.05292 10.5513 1.86674 10.9545 1.86674C11.6058 1.86674 12.1573 2.37442 12.21 3.02256C12.2197 3.14203 12.2778 3.25236 12.3708 3.32798C12.4638 3.40359 12.5837 3.43793 12.7026 3.42299C13.0623 3.37799 13.424 3.4894 13.6953 3.72879C13.9659 3.96759 14.1211 4.31171 14.1211 4.67285C14.1211 5.03382 13.9661 5.37779 13.6957 5.61659Z" fill="#263144"/>
</svg>
