<svg width="118" height="93" viewBox="0 0 118 93" fill="none" xmlns="http://www.w3.org/2000/svg">
<path fill-rule="evenodd" clip-rule="evenodd" d="M20.5441 30.8738C25.3442 21.6577 34.9826 15.3601 46.0803 15.3601C60.058 15.3601 71.6933 25.3058 74.3045 38.5538C84.2886 39.245 92.1606 47.4627 92.1606 57.6004C92.1606 68.1988 83.5589 76.8005 72.9605 76.8005H23.0401C10.3297 76.8005 0 66.4708 0 53.7603C0 41.8947 8.98566 32.1026 20.5441 30.8738ZM66.7781 40.0514C64.8196 30.1826 56.1412 23.0401 46.0803 23.0401C38.1699 23.0401 31.0274 27.4178 27.3794 34.445L25.4594 38.093L21.3505 38.5154C13.5553 39.3218 7.68005 45.8883 7.68005 53.7603C7.68005 62.2468 14.5537 69.1204 23.0402 69.1204H72.9605C79.2965 69.1204 84.4806 63.9364 84.4806 57.6004C84.4806 51.6483 79.7957 46.6179 73.8053 46.2339L67.9301 45.8115L66.7781 40.0514Z" fill="#F2F2F2"/>
<path fill-rule="evenodd" clip-rule="evenodd" d="M46.3835 30.8738C51.1836 21.6577 60.822 15.3601 71.9197 15.3601C85.8974 15.3601 97.5327 25.3058 100.144 38.5538C110.128 39.245 118 47.4627 118 57.6004C118 68.1988 109.398 76.8005 98.7999 76.8005H48.8796C36.1691 76.8005 25.8394 66.4708 25.8394 53.7603C25.8394 41.8947 34.8251 32.1026 46.3835 30.8738ZM92.6175 40.0514C90.659 30.1826 81.9806 23.0401 71.9197 23.0401C64.0093 23.0401 56.8668 27.4178 53.2188 34.445L51.2988 38.093L47.1899 38.5154C39.3947 39.3218 33.5195 45.8883 33.5195 53.7603C33.5195 62.2468 40.3931 69.1204 48.8796 69.1204H98.7999C105.136 69.1204 110.32 63.9364 110.32 57.6004C110.32 51.6483 105.635 46.6179 99.6447 46.2339L93.7695 45.8115L92.6175 40.0514Z" fill="#F2F2F2"/>
</svg>
